<svg xmlns="http://www.w3.org/2000/svg" fill="none" viewBox="0 0 200 200" width="400" height="400" class="coolshapes ellipse-7 "><g clip-path="url(#cs_clip_1_ellipse-7)"><mask id="cs_mask_1_ellipse-7" style="mask-type:alpha" width="200" height="200" x="0" y="0" maskUnits="userSpaceOnUse"><path fill="#fff" d="M200 100c0 55.228-44.772 100-100 100 37.555 0 68-30.445 68-68s-30.445-68-68-68-68 30.445-68 68 30.445 68 68 68C44.772 200 0 155.228 0 100S44.772 0 100 0s100 44.772 100 100z"></path><path fill="#fff" d="M100 200c-26.51 0-48-21.49-48-48s21.49-48 48-48 48 21.49 48 48-21.49 48-48 48z"></path></mask><g mask="url(#cs_mask_1_ellipse-7)"><path fill="#fff" d="M200 0H0v200h200V0z"></path><path fill="#907CFF" fill-opacity="0.6" d="M200 0H0v200h200V0z"></path><g filter="url(#filter0_f_748_4753)"><path fill="#18A0FB" d="M212.25-15H100v139.75h112.25V-15z"></path><path fill="#907CFF" d="M133.875-7H15v128.25h118.875V-7z"></path><path fill="#EE46D3" d="M223 68H81v146h142V68z"></path></g></g></g><defs><filter id="filter0_f_748_4753" width="368" height="389" x="-65" y="-95" color-interpolation-filters="sRGB" filterUnits="userSpaceOnUse"><feFlood flood-opacity="0" result="BackgroundImageFix"></feFlood><feBlend in="SourceGraphic" in2="BackgroundImageFix" result="shape"></feBlend><feGaussianBlur result="effect1_foregroundBlur_748_4753" stdDeviation="40"></feGaussianBlur></filter><clipPath id="cs_clip_1_ellipse-7"><path fill="#fff" d="M0 0H200V200H0z"></path></clipPath></defs><g style="mix-blend-mode:overlay" mask="url(#cs_mask_1_ellipse-7)"><path fill="gray" stroke="transparent" d="M200 0H0v200h200V0z" filter="url(#cs_noise_1_ellipse-7)"></path></g><defs><filter id="cs_noise_1_ellipse-7" width="100%" height="100%" x="0%" y="0%" filterUnits="objectBoundingBox"><feTurbulence baseFrequency="0.6" numOctaves="5" result="out1" seed="4"></feTurbulence><feComposite in="out1" in2="SourceGraphic" operator="in" result="out2"></feComposite><feBlend in="SourceGraphic" in2="out2" mode="overlay" result="out3"></feBlend></filter></defs></svg>